<svg width="279" height="32" viewBox="0 0 279 32" fill="none" xmlns="http://www.w3.org/2000/svg">
<path fill-rule="evenodd" clip-rule="evenodd" d="M16.5482 31.8708C25.3135 31.8708 32.4192 24.7652 32.4192 15.9999C32.4192 7.23459 25.3135 0.128906 16.5482 0.128906C7.78291 0.128906 0.677246 7.23459 0.677246 15.9999C0.677246 24.7652 7.78291 31.8708 16.5482 31.8708ZM21.4994 7.52227C21.7404 6.6662 20.9097 6.15998 20.151 6.70052L9.55953 14.2458C8.7367 14.832 8.86613 15.9999 9.75395 15.9999H12.543V15.9783H17.9786L13.5496 17.541L11.5971 24.4775C11.356 25.3336 12.1867 25.8398 12.9455 25.2992L23.5369 17.754C24.3598 17.1678 24.2303 15.9999 23.3425 15.9999H19.1131L21.4994 7.52227Z" fill="#A8FF35"/>
<path d="M52.9877 7.07486V23.9998H50.7442V7.07486H52.9877ZM60.0785 14.6887V16.5254H52.4995V14.6887H60.0785ZM61.2293 7.07486V8.91149H52.4995V7.07486H61.2293ZM65.9139 11.4223V23.9998H63.7518V11.4223H65.9139ZM63.589 8.08617C63.589 7.73744 63.6936 7.44296 63.9029 7.20272C64.1199 6.96249 64.4376 6.84237 64.8561 6.84237C65.2668 6.84237 65.5806 6.96249 65.7976 7.20272C66.0224 7.44296 66.1347 7.73744 66.1347 8.08617C66.1347 8.4194 66.0224 8.70613 65.7976 8.94636C65.5806 9.17885 65.2668 9.29509 64.8561 9.29509C64.4376 9.29509 64.1199 9.17885 63.9029 8.94636C63.6936 8.70613 63.589 8.4194 63.589 8.08617ZM71.5168 14.1075V23.9998H69.3663V11.4223H71.4005L71.5168 14.1075ZM71.0053 17.2344L70.1102 17.1996C70.118 16.3394 70.2458 15.5451 70.4938 14.8166C70.7418 14.0804 71.0905 13.4411 71.54 12.8986C71.9895 12.3561 72.5242 11.9377 73.1442 11.6432C73.7719 11.341 74.4654 11.1898 75.2249 11.1898C75.8449 11.1898 76.4028 11.2751 76.8988 11.4456C77.3948 11.6083 77.8171 11.8718 78.1658 12.236C78.5223 12.6002 78.7935 13.073 78.9795 13.6542C79.1655 14.2276 79.2585 14.929 79.2585 15.7582V23.9998H77.0964V15.7349C77.0964 15.0762 76.9995 14.5492 76.8058 14.154C76.6121 13.751 76.3292 13.4604 75.9572 13.2822C75.5852 13.0962 75.128 13.0032 74.5856 13.0032C74.0508 13.0032 73.5626 13.1156 73.1209 13.3403C72.6869 13.5651 72.3111 13.875 71.9934 14.2703C71.6834 14.6655 71.4393 15.1188 71.261 15.6303C71.0905 16.134 71.0053 16.6687 71.0053 17.2344ZM90.4527 21.5587V6.14492H92.6148V23.9998H90.6386L90.4527 21.5587ZM81.9902 17.8505V17.6064C81.9902 16.6455 82.1064 15.7737 82.3389 14.991C82.5792 14.2005 82.9163 13.5224 83.3502 12.9567C83.792 12.391 84.3151 11.957 84.9195 11.6548C85.5317 11.3448 86.2137 11.1898 86.9654 11.1898C87.7558 11.1898 88.4455 11.3293 89.0345 11.6083C89.6312 11.8795 90.1349 12.2786 90.5456 12.8056C90.9641 13.3248 91.2935 13.9525 91.5337 14.6887C91.7739 15.4249 91.9406 16.258 92.0335 17.1879V18.2574C91.9483 19.1796 91.7817 20.0088 91.5337 20.745C91.2935 21.4812 90.9641 22.1089 90.5456 22.6281C90.1349 23.1473 89.6312 23.5464 89.0345 23.8254C88.4378 24.0966 87.7403 24.2322 86.9421 24.2322C86.2059 24.2322 85.5317 24.0734 84.9195 23.7556C84.3151 23.4379 83.792 22.9923 83.3502 22.4189C82.9163 21.8454 82.5792 21.1712 82.3389 20.3962C82.1064 19.6135 81.9902 18.765 81.9902 17.8505ZM84.1523 17.6064V17.8505C84.1523 18.4782 84.2143 19.0672 84.3383 19.6174C84.47 20.1676 84.6715 20.652 84.9428 21.0704C85.214 21.4889 85.5588 21.8183 85.9773 22.0585C86.3958 22.291 86.8956 22.4072 87.4768 22.4072C88.1898 22.4072 88.7749 22.2561 89.2321 21.9539C89.6971 21.6517 90.0691 21.2526 90.348 20.7566C90.627 20.2606 90.844 19.722 90.999 19.1408V16.3394C90.906 15.9132 90.7704 15.5024 90.5921 15.1072C90.4217 14.7042 90.1969 14.3478 89.9179 14.0378C89.6467 13.7201 89.3096 13.4682 88.9066 13.2822C88.5114 13.0962 88.0426 13.0032 87.5001 13.0032C86.9111 13.0032 86.4035 13.1272 85.9773 13.3752C85.5588 13.6154 85.214 13.9487 84.9428 14.3749C84.6715 14.7934 84.47 15.2816 84.3383 15.8395C84.2143 16.3898 84.1523 16.9787 84.1523 17.6064ZM101.228 11.4223V13.073H94.4281V11.4223H101.228ZM96.7297 8.36515H98.8802V20.8845C98.8802 21.3107 98.9461 21.6323 99.0778 21.8493C99.2096 22.0663 99.3801 22.2096 99.5893 22.2794C99.7985 22.3491 100.023 22.384 100.264 22.384C100.442 22.384 100.628 22.3685 100.821 22.3375C101.023 22.2987 101.174 22.2677 101.275 22.2445L101.286 23.9998C101.116 24.054 100.891 24.1044 100.612 24.1509C100.341 24.2051 100.012 24.2322 99.6242 24.2322C99.0972 24.2322 98.6129 24.1276 98.1711 23.9184C97.7294 23.7091 97.3768 23.3604 97.1133 22.8722C96.8576 22.3762 96.7297 21.7098 96.7297 20.8728V8.36515ZM105.901 13.3984V23.9998H103.751V11.4223H105.843L105.901 13.3984ZM109.83 11.3526L109.819 13.3519C109.64 13.3132 109.47 13.29 109.307 13.2822C109.152 13.2667 108.974 13.259 108.772 13.259C108.276 13.259 107.839 13.3365 107.459 13.4914C107.079 13.6464 106.758 13.8634 106.494 14.1424C106.231 14.4214 106.021 14.7546 105.866 15.1421C105.719 15.5218 105.622 15.9403 105.576 16.3975L104.971 16.7462C104.971 15.9868 105.045 15.2738 105.192 14.6074C105.347 13.9409 105.584 13.3519 105.901 12.8405C106.219 12.3213 106.622 11.9183 107.11 11.6316C107.606 11.3371 108.195 11.1898 108.877 11.1898C109.032 11.1898 109.21 11.2092 109.412 11.248C109.613 11.279 109.753 11.3138 109.83 11.3526ZM116.805 24.2322C115.929 24.2322 115.135 24.085 114.422 23.7905C113.717 23.4883 113.108 23.0659 112.597 22.5235C112.093 21.981 111.706 21.3378 111.434 20.5939C111.163 19.8499 111.028 19.0362 111.028 18.1528V17.6645C111.028 16.6416 111.179 15.731 111.481 14.9328C111.783 14.1269 112.194 13.4449 112.713 12.887C113.232 12.329 113.821 11.9067 114.48 11.6199C115.139 11.3332 115.821 11.1898 116.526 11.1898C117.425 11.1898 118.2 11.3448 118.851 11.6548C119.509 11.9648 120.048 12.3988 120.466 12.9567C120.885 13.5069 121.195 14.1579 121.396 14.9096C121.598 15.6535 121.699 16.4672 121.699 17.3507V18.3155H112.306V16.5602H119.548V16.3975C119.517 15.8395 119.401 15.2971 119.199 14.7701C119.006 14.2431 118.696 13.8092 118.269 13.4682C117.843 13.1272 117.262 12.9567 116.526 12.9567C116.038 12.9567 115.588 13.0613 115.177 13.2706C114.767 13.4721 114.414 13.7743 114.12 14.1773C113.825 14.5802 113.597 15.0723 113.434 15.6535C113.271 16.2348 113.19 16.9051 113.19 17.6645V18.1528C113.19 18.7495 113.271 19.3113 113.434 19.8383C113.604 20.3575 113.848 20.8147 114.166 21.2099C114.492 21.6052 114.883 21.9151 115.34 22.1399C115.805 22.3646 116.332 22.477 116.921 22.477C117.681 22.477 118.324 22.322 118.851 22.012C119.378 21.702 119.839 21.2874 120.234 20.7682L121.536 21.8028C121.265 22.2135 120.92 22.6048 120.501 22.9768C120.083 23.3488 119.568 23.651 118.955 23.8835C118.351 24.116 117.634 24.2322 116.805 24.2322ZM126.36 14.1075V23.9998H124.209V11.4223H126.244L126.36 14.1075ZM125.848 17.2344L124.953 17.1996C124.961 16.3394 125.089 15.5451 125.337 14.8166C125.585 14.0804 125.934 13.4411 126.383 12.8986C126.833 12.3561 127.367 11.9377 127.987 11.6432C128.615 11.341 129.309 11.1898 130.068 11.1898C130.688 11.1898 131.246 11.2751 131.742 11.4456C132.238 11.6083 132.66 11.8718 133.009 12.236C133.365 12.6002 133.637 13.073 133.823 13.6542C134.009 14.2276 134.102 14.929 134.102 15.7582V23.9998H131.94V15.7349C131.94 15.0762 131.843 14.5492 131.649 14.154C131.455 13.751 131.172 13.4604 130.8 13.2822C130.428 13.0962 129.971 13.0032 129.429 13.0032C128.894 13.0032 128.406 13.1156 127.964 13.3403C127.53 13.5651 127.154 13.875 126.837 14.2703C126.527 14.6655 126.282 15.1188 126.104 15.6303C125.934 16.134 125.848 16.6687 125.848 17.2344ZM145.296 21.5587V6.14492H147.458V23.9998H145.482L145.296 21.5587ZM136.833 17.8505V17.6064C136.833 16.6455 136.95 15.7737 137.182 14.991C137.422 14.2005 137.759 13.5224 138.193 12.9567C138.635 12.391 139.158 11.957 139.763 11.6548C140.375 11.3448 141.057 11.1898 141.809 11.1898C142.599 11.1898 143.289 11.3293 143.878 11.6083C144.474 11.8795 144.978 12.2786 145.389 12.8056C145.807 13.3248 146.137 13.9525 146.377 14.6887C146.617 15.4249 146.784 16.258 146.877 17.1879V18.2574C146.791 19.1796 146.625 20.0088 146.377 20.745C146.137 21.4812 145.807 22.1089 145.389 22.6281C144.978 23.1473 144.474 23.5464 143.878 23.8254C143.281 24.0966 142.584 24.2322 141.785 24.2322C141.049 24.2322 140.375 24.0734 139.763 23.7556C139.158 23.4379 138.635 22.9923 138.193 22.4189C137.759 21.8454 137.422 21.1712 137.182 20.3962C136.95 19.6135 136.833 18.765 136.833 17.8505ZM138.995 17.6064V17.8505C138.995 18.4782 139.057 19.0672 139.181 19.6174C139.313 20.1676 139.515 20.652 139.786 21.0704C140.057 21.4889 140.402 21.8183 140.82 22.0585C141.239 22.291 141.739 22.4072 142.32 22.4072C143.033 22.4072 143.618 22.2561 144.075 21.9539C144.54 21.6517 144.912 21.2526 145.191 20.7566C145.47 20.2606 145.687 19.722 145.842 19.1408V16.3394C145.749 15.9132 145.614 15.5024 145.435 15.1072C145.265 14.7042 145.04 14.3478 144.761 14.0378C144.49 13.7201 144.153 13.4682 143.75 13.2822C143.355 13.0962 142.886 13.0032 142.343 13.0032C141.754 13.0032 141.247 13.1272 140.82 13.3752C140.402 13.6154 140.057 13.9487 139.786 14.3749C139.515 14.7934 139.313 15.2816 139.181 15.8395C139.057 16.3898 138.995 16.9787 138.995 17.6064ZM161.186 15.9209V17.6878H155.514V15.9209H161.186ZM180.273 22.1747V23.9998H171.311V22.1747H180.273ZM171.764 7.07486V23.9998H169.521V7.07486H171.764ZM179.088 14.3516V16.1766H171.311V14.3516H179.088ZM180.157 7.07486V8.91149H171.311V7.07486H180.157ZM185.062 6.14492V23.9998H182.9V6.14492H185.062ZM187.945 17.8505V17.5832C187.945 16.6765 188.077 15.8357 188.34 15.0607C188.604 14.278 188.984 13.5999 189.48 13.0265C189.976 12.4453 190.576 11.9958 191.281 11.6781C191.987 11.3526 192.777 11.1898 193.653 11.1898C194.536 11.1898 195.33 11.3526 196.036 11.6781C196.749 11.9958 197.353 12.4453 197.849 13.0265C198.353 13.5999 198.736 14.278 199 15.0607C199.263 15.8357 199.395 16.6765 199.395 17.5832V17.8505C199.395 18.7572 199.263 19.598 199 20.373C198.736 21.1479 198.353 21.826 197.849 22.4072C197.353 22.9807 196.752 23.4302 196.047 23.7556C195.35 24.0734 194.559 24.2322 193.676 24.2322C192.792 24.2322 191.998 24.0734 191.293 23.7556C190.588 23.4302 189.983 22.9807 189.48 22.4072C188.984 21.826 188.604 21.1479 188.34 20.373C188.077 19.598 187.945 18.7572 187.945 17.8505ZM190.096 17.5832V17.8505C190.096 18.4782 190.169 19.0711 190.317 19.629C190.464 20.1793 190.685 20.6675 190.979 21.0937C191.281 21.5199 191.657 21.857 192.107 22.105C192.556 22.3452 193.079 22.4654 193.676 22.4654C194.265 22.4654 194.78 22.3452 195.222 22.105C195.671 21.857 196.043 21.5199 196.338 21.0937C196.632 20.6675 196.853 20.1793 197 19.629C197.155 19.0711 197.233 18.4782 197.233 17.8505V17.5832C197.233 16.9632 197.155 16.3781 197 15.8279C196.853 15.2699 196.628 14.7779 196.326 14.3516C196.032 13.9177 195.66 13.5767 195.21 13.3287C194.769 13.0807 194.249 12.9567 193.653 12.9567C193.064 12.9567 192.545 13.0807 192.095 13.3287C191.653 13.5767 191.281 13.9177 190.979 14.3516C190.685 14.7779 190.464 15.2699 190.317 15.8279C190.169 16.3781 190.096 16.9632 190.096 17.5832ZM204.242 14.1075V23.9998H202.092V11.4223H204.126L204.242 14.1075ZM203.731 17.2344L202.836 17.1996C202.844 16.3394 202.971 15.5451 203.219 14.8166C203.467 14.0804 203.816 13.4411 204.266 12.8986C204.715 12.3561 205.25 11.9377 205.87 11.6432C206.497 11.341 207.191 11.1898 207.951 11.1898C208.57 11.1898 209.128 11.2751 209.624 11.4456C210.12 11.6083 210.543 11.8718 210.891 12.236C211.248 12.6002 211.519 13.073 211.705 13.6542C211.891 14.2276 211.984 14.929 211.984 15.7582V23.9998H209.822V15.7349C209.822 15.0762 209.725 14.5492 209.531 14.154C209.338 13.751 209.055 13.4604 208.683 13.2822C208.311 13.0962 207.854 13.0032 207.311 13.0032C206.776 13.0032 206.288 13.1156 205.847 13.3403C205.413 13.5651 205.037 13.875 204.719 14.2703C204.409 14.6655 204.165 15.1188 203.987 15.6303C203.816 16.134 203.731 16.6687 203.731 17.2344ZM222.19 7.07486H224.364L229.909 20.8728L235.442 7.07486H237.627L230.746 23.9998H229.048L222.19 7.07486ZM221.481 7.07486H223.399L223.713 17.3972V23.9998H221.481V7.07486ZM236.407 7.07486H238.325V23.9998H236.093V17.3972L236.407 7.07486ZM249.635 21.0937V11.4223H251.797V23.9998H249.74L249.635 21.0937ZM250.042 18.4434L250.937 18.4201C250.937 19.2571 250.848 20.032 250.67 20.745C250.499 21.4502 250.22 22.0624 249.833 22.5816C249.445 23.1008 248.938 23.5077 248.31 23.8021C247.682 24.0889 246.919 24.2322 246.02 24.2322C245.408 24.2322 244.846 24.1431 244.334 23.9649C243.831 23.7866 243.397 23.5115 243.032 23.1396C242.668 22.7676 242.385 22.2832 242.184 21.6865C241.99 21.0898 241.893 20.373 241.893 19.536V11.4223H244.044V19.5593C244.044 20.125 244.106 20.5939 244.23 20.9658C244.362 21.3301 244.536 21.6207 244.753 21.8376C244.978 22.0469 245.226 22.1941 245.497 22.2794C245.776 22.3646 246.063 22.4072 246.357 22.4072C247.271 22.4072 247.996 22.2329 248.531 21.8841C249.065 21.5277 249.449 21.0511 249.682 20.4544C249.922 19.8499 250.042 19.1796 250.042 18.4434ZM262.398 20.6636C262.398 20.3536 262.329 20.0669 262.189 19.8034C262.057 19.5322 261.782 19.2881 261.364 19.0711C260.953 18.8463 260.333 18.6526 259.504 18.4899C258.807 18.3426 258.175 18.1683 257.609 17.9668C257.051 17.7653 256.575 17.5212 256.179 17.2344C255.792 16.9477 255.494 16.6106 255.284 16.2231C255.075 15.8357 254.971 15.3823 254.971 14.8631C254.971 14.3671 255.079 13.8983 255.296 13.4566C255.521 13.0148 255.835 12.6235 256.238 12.2825C256.648 11.9415 257.14 11.6742 257.714 11.4804C258.287 11.2867 258.927 11.1898 259.632 11.1898C260.639 11.1898 261.5 11.3681 262.212 11.7246C262.925 12.081 263.472 12.5576 263.851 13.1543C264.231 13.7433 264.421 14.3981 264.421 15.1188H262.271C262.271 14.7701 262.166 14.433 261.957 14.1075C261.755 13.7743 261.457 13.4992 261.062 13.2822C260.674 13.0652 260.198 12.9567 259.632 12.9567C259.035 12.9567 258.551 13.0497 258.179 13.2357C257.815 13.4139 257.547 13.6426 257.377 13.9215C257.214 14.2005 257.133 14.495 257.133 14.805C257.133 15.0375 257.171 15.2467 257.249 15.4327C257.334 15.6109 257.481 15.7775 257.691 15.9325C257.9 16.0798 258.194 16.2193 258.574 16.351C258.954 16.4827 259.438 16.6145 260.027 16.7462C261.058 16.9787 261.906 17.2577 262.573 17.5832C263.239 17.9087 263.735 18.3078 264.061 18.7805C264.386 19.2532 264.549 19.8267 264.549 20.5009C264.549 21.0511 264.433 21.5548 264.2 22.012C263.975 22.4692 263.646 22.8645 263.212 23.1977C262.786 23.5232 262.274 23.7789 261.678 23.9649C261.089 24.1431 260.426 24.2322 259.69 24.2322C258.582 24.2322 257.644 24.0346 256.877 23.6394C256.11 23.2442 255.529 22.7327 255.133 22.105C254.738 21.4773 254.54 20.8147 254.54 20.1173H256.703C256.734 20.7062 256.904 21.1751 257.214 21.5238C257.524 21.8648 257.904 22.1089 258.353 22.2561C258.803 22.3956 259.248 22.4654 259.69 22.4654C260.279 22.4654 260.771 22.3879 261.166 22.2329C261.569 22.0779 261.875 21.8648 262.085 21.5935C262.294 21.3223 262.398 21.0123 262.398 20.6636ZM269.536 6.14492V23.9998H267.374V6.14492H269.536ZM277.219 11.4223L271.733 17.2926L268.664 20.4776L268.49 18.1876L270.687 15.5606L274.592 11.4223H277.219ZM275.255 23.9998L270.768 18.0016L271.884 16.0836L277.789 23.9998H275.255Z" fill="white"/>
</svg>
